<svg xmlns="http://www.w3.org/2000/svg" viewBox="0 0 365.09 320.49"><defs><style>.cls-1{fill:#f1f1f1;}.cls-2{fill:none;stroke:#000;stroke-miterlimit:10;stroke-width:0.25px;}.cls-3{fill:#010101;}.cls-4{fill:#fff;}.cls-5{fill:#333;}.cls-6{fill:#4d4d4d;}</style></defs><g id="Layer_2" data-name="Layer 2"><g id="Layer_1-2" data-name="Layer 1"><polygon class="cls-1" points="0.13 320.24 0.13 239.66 364.79 239.66 284.21 320.24 0.13 320.24"/><path d="M364.49,239.79l-80.33,80.33H.25V239.79H364.49m.6-.25H0v80.83H284.26l80.83-80.83Z"/><rect class="cls-2" x="30.71" y="209.06" width="80.83" height="141.79" transform="translate(-208.83 351.08) rotate(-90)"/><polygon class="cls-3" points="80.83 161.41 80.83 239.54 0 320.37 0 239.54 80.83 161.41"/><polygon class="cls-3" points="222.85 0 222.85 239.54 142.01 320.02 142.01 80.83 222.85 0"/><polygon class="cls-4" points="142.32 201.69 222.93 121.08 303.36 121.11 222.79 201.69 142.32 201.69"/><path d="M303.06,121.24l-80.32,80.33H142.62L223,121.24h80.11m.6-.25H222.85L142,201.82h80.83L303.66,121Z"/><polygon class="cls-4" points="80.92 161.5 104.04 161.5 31.87 239.45 0.32 239.71 80.92 161.5"/><path class="cls-5" d="M103.75,161.63l-71.9,77.66-31.22.29,80.3-77.92,22.82,0m.58-.25-23.5,0L0,239.83l32-.29,72.37-78.16Z"/><polygon class="cls-4" points="142.32 80.7 222.93 0.09 364.79 0.13 283.81 80.7 142.32 80.7"/><path class="cls-6" d="M364.49.25,283.76,80.58H142.62L223,.25H364.49m.6-.25H222.85L142,80.83H283.86L365.09,0Z"/></g></g></svg>